<mxfile host="app.diagrams.net" modified="2022-05-17T04:24:27.774Z" agent="5.0 (Macintosh; Intel Mac OS X 10_15_7) AppleWebKit/537.36 (KHTML, like Gecko) Chrome/100.0.4896.127 Safari/537.36" etag="YMyYpK4SdKCv1jrilpne" version="18.0.6" type="github">
  <diagram id="C5RBs43oDa-KdzZeNtuy" name="Page-1">
    <mxGraphModel dx="1125" dy="582" grid="1" gridSize="10" guides="1" tooltips="1" connect="1" arrows="1" fold="1" page="1" pageScale="1" pageWidth="3300" pageHeight="4681" math="0" shadow="0">
      <root>
        <mxCell id="WIyWlLk6GJQsqaUBKTNV-0" />
        <mxCell id="WIyWlLk6GJQsqaUBKTNV-1" parent="WIyWlLk6GJQsqaUBKTNV-0" />
        <mxCell id="jvSXbim7RQ2kWvmTT3K5-10" style="edgeStyle=none;curved=1;rounded=0;orthogonalLoop=1;jettySize=auto;html=1;exitX=0.5;exitY=1;exitDx=0;exitDy=0;entryX=0.5;entryY=0;entryDx=0;entryDy=0;endArrow=block;startSize=6;endSize=8;sourcePerimeterSpacing=0;targetPerimeterSpacing=0;endFill=0;fontFamily=Helvetica;" edge="1" parent="WIyWlLk6GJQsqaUBKTNV-1" source="jvSXbim7RQ2kWvmTT3K5-0" target="jvSXbim7RQ2kWvmTT3K5-3">
          <mxGeometry relative="1" as="geometry" />
        </mxCell>
        <mxCell id="jvSXbim7RQ2kWvmTT3K5-0" value="Desain Elemen" style="rounded=0;whiteSpace=wrap;html=1;fontSize=7;glass=0;strokeWidth=1;shadow=0;fontFamily=Helvetica;" vertex="1" parent="WIyWlLk6GJQsqaUBKTNV-1">
          <mxGeometry y="40" width="120" height="40" as="geometry" />
        </mxCell>
        <mxCell id="jvSXbim7RQ2kWvmTT3K5-3" value="Flexural Members" style="rhombus;whiteSpace=wrap;html=1;shadow=0;fontFamily=Helvetica;fontSize=7;align=center;strokeWidth=1;spacing=6;spacingTop=-4;rounded=0;" vertex="1" parent="WIyWlLk6GJQsqaUBKTNV-1">
          <mxGeometry x="10" y="120" width="100" height="80" as="geometry" />
        </mxCell>
        <mxCell id="jvSXbim7RQ2kWvmTT3K5-4" value="No" style="edgeStyle=orthogonalEdgeStyle;rounded=0;html=1;jettySize=auto;orthogonalLoop=1;fontSize=11;endArrow=block;endFill=0;endSize=8;strokeWidth=1;shadow=0;labelBackgroundColor=none;entryX=0;entryY=0.5;entryDx=0;entryDy=0;fontFamily=Helvetica;" edge="1" parent="WIyWlLk6GJQsqaUBKTNV-1" source="jvSXbim7RQ2kWvmTT3K5-3">
          <mxGeometry y="10" relative="1" as="geometry">
            <mxPoint as="offset" />
            <mxPoint x="119.99999999999989" y="169.71" as="sourcePoint" />
            <mxPoint x="160" y="160" as="targetPoint" />
          </mxGeometry>
        </mxCell>
        <mxCell id="jvSXbim7RQ2kWvmTT3K5-9" value="Yes" style="edgeStyle=orthogonalEdgeStyle;rounded=0;html=1;jettySize=auto;orthogonalLoop=1;fontSize=11;endArrow=block;endFill=0;endSize=8;strokeWidth=1;shadow=0;labelBackgroundColor=none;entryX=0.5;entryY=0;entryDx=0;entryDy=0;exitX=0.5;exitY=1;exitDx=0;exitDy=0;fontFamily=Helvetica;" edge="1" parent="WIyWlLk6GJQsqaUBKTNV-1" source="jvSXbim7RQ2kWvmTT3K5-3">
          <mxGeometry y="10" relative="1" as="geometry">
            <mxPoint as="offset" />
            <mxPoint x="50" y="260" as="sourcePoint" />
            <mxPoint x="60" y="259.9999999999999" as="targetPoint" />
          </mxGeometry>
        </mxCell>
        <mxCell id="jvSXbim7RQ2kWvmTT3K5-15" value="Compressions Members" style="rhombus;whiteSpace=wrap;html=1;shadow=0;fontFamily=Helvetica;fontSize=7;align=center;strokeWidth=1;spacing=6;spacingTop=-4;rounded=0;" vertex="1" parent="WIyWlLk6GJQsqaUBKTNV-1">
          <mxGeometry x="160" y="120" width="100" height="80" as="geometry" />
        </mxCell>
        <mxCell id="jvSXbim7RQ2kWvmTT3K5-16" value="Tension Members" style="rhombus;whiteSpace=wrap;html=1;shadow=0;fontFamily=Helvetica;fontSize=7;align=center;strokeWidth=1;spacing=6;spacingTop=-4;rounded=0;" vertex="1" parent="WIyWlLk6GJQsqaUBKTNV-1">
          <mxGeometry x="320" y="120" width="100" height="80" as="geometry" />
        </mxCell>
        <mxCell id="jvSXbim7RQ2kWvmTT3K5-17" value="Combined Forces" style="rhombus;whiteSpace=wrap;html=1;shadow=0;fontFamily=Helvetica;fontSize=7;align=center;strokeWidth=1;spacing=6;spacingTop=-4;rounded=0;" vertex="1" parent="WIyWlLk6GJQsqaUBKTNV-1">
          <mxGeometry x="480" y="120" width="100" height="80" as="geometry" />
        </mxCell>
        <mxCell id="jvSXbim7RQ2kWvmTT3K5-18" value="Flexure and Axial compressions" style="rhombus;whiteSpace=wrap;html=1;shadow=0;fontFamily=Helvetica;fontSize=7;align=center;strokeWidth=1;spacing=6;spacingTop=-4;rounded=0;" vertex="1" parent="WIyWlLk6GJQsqaUBKTNV-1">
          <mxGeometry x="640" y="120" width="100" height="80" as="geometry" />
        </mxCell>
        <mxCell id="jvSXbim7RQ2kWvmTT3K5-19" value="Flexure and Axial Tension" style="rhombus;whiteSpace=wrap;html=1;shadow=0;fontFamily=Helvetica;fontSize=7;align=center;strokeWidth=1;spacing=6;spacingTop=-4;rounded=0;" vertex="1" parent="WIyWlLk6GJQsqaUBKTNV-1">
          <mxGeometry x="800" y="120" width="100" height="80" as="geometry" />
        </mxCell>
        <mxCell id="jvSXbim7RQ2kWvmTT3K5-20" value="Torsion and Combined Torsion, Flexure, Shear And/Or Axial Force" style="rhombus;whiteSpace=wrap;html=1;shadow=0;fontFamily=Helvetica;fontSize=7;align=center;strokeWidth=1;spacing=6;spacingTop=-4;rounded=0;" vertex="1" parent="WIyWlLk6GJQsqaUBKTNV-1">
          <mxGeometry x="960" y="120" width="100" height="80" as="geometry" />
        </mxCell>
        <mxCell id="jvSXbim7RQ2kWvmTT3K5-21" value="Yes" style="edgeStyle=orthogonalEdgeStyle;rounded=0;html=1;jettySize=auto;orthogonalLoop=1;fontSize=11;endArrow=block;endFill=0;endSize=8;strokeWidth=1;shadow=0;labelBackgroundColor=none;entryX=0.5;entryY=0;entryDx=0;entryDy=0;exitX=0.5;exitY=1;exitDx=0;exitDy=0;fontFamily=Helvetica;" edge="1" parent="WIyWlLk6GJQsqaUBKTNV-1">
          <mxGeometry y="10" relative="1" as="geometry">
            <mxPoint as="offset" />
            <mxPoint x="209.74" y="200" as="sourcePoint" />
            <mxPoint x="209.74" y="259.9999999999999" as="targetPoint" />
          </mxGeometry>
        </mxCell>
        <mxCell id="jvSXbim7RQ2kWvmTT3K5-22" value="Yes" style="edgeStyle=orthogonalEdgeStyle;rounded=0;html=1;jettySize=auto;orthogonalLoop=1;fontSize=11;endArrow=block;endFill=0;endSize=8;strokeWidth=1;shadow=0;labelBackgroundColor=none;entryX=0.5;entryY=0;entryDx=0;entryDy=0;exitX=0.5;exitY=1;exitDx=0;exitDy=0;fontFamily=Helvetica;" edge="1" parent="WIyWlLk6GJQsqaUBKTNV-1">
          <mxGeometry y="10" relative="1" as="geometry">
            <mxPoint as="offset" />
            <mxPoint x="849.76" y="200" as="sourcePoint" />
            <mxPoint x="849.76" y="259.9999999999999" as="targetPoint" />
          </mxGeometry>
        </mxCell>
        <mxCell id="jvSXbim7RQ2kWvmTT3K5-23" value="Yes" style="edgeStyle=orthogonalEdgeStyle;rounded=0;html=1;jettySize=auto;orthogonalLoop=1;fontSize=11;endArrow=block;endFill=0;endSize=8;strokeWidth=1;shadow=0;labelBackgroundColor=none;entryX=0.5;entryY=0;entryDx=0;entryDy=0;exitX=0.5;exitY=1;exitDx=0;exitDy=0;fontFamily=Helvetica;" edge="1" parent="WIyWlLk6GJQsqaUBKTNV-1">
          <mxGeometry y="10" relative="1" as="geometry">
            <mxPoint as="offset" />
            <mxPoint x="689.76" y="200" as="sourcePoint" />
            <mxPoint x="689.76" y="259.9999999999999" as="targetPoint" />
          </mxGeometry>
        </mxCell>
        <mxCell id="jvSXbim7RQ2kWvmTT3K5-24" value="No" style="edgeStyle=orthogonalEdgeStyle;rounded=0;html=1;jettySize=auto;orthogonalLoop=1;fontSize=11;endArrow=block;endFill=0;endSize=8;strokeWidth=1;shadow=0;labelBackgroundColor=none;entryX=0.5;entryY=0;entryDx=0;entryDy=0;exitX=0.5;exitY=1;exitDx=0;exitDy=0;fontFamily=Helvetica;" edge="1" parent="WIyWlLk6GJQsqaUBKTNV-1">
          <mxGeometry y="10" relative="1" as="geometry">
            <mxPoint as="offset" />
            <mxPoint x="529.7299999999999" y="200" as="sourcePoint" />
            <mxPoint x="529.7299999999999" y="259.9999999999999" as="targetPoint" />
          </mxGeometry>
        </mxCell>
        <mxCell id="jvSXbim7RQ2kWvmTT3K5-25" value="Yes" style="edgeStyle=orthogonalEdgeStyle;rounded=0;html=1;jettySize=auto;orthogonalLoop=1;fontSize=11;endArrow=block;endFill=0;endSize=8;strokeWidth=1;shadow=0;labelBackgroundColor=none;entryX=0.5;entryY=0;entryDx=0;entryDy=0;exitX=0.5;exitY=1;exitDx=0;exitDy=0;fontFamily=Helvetica;" edge="1" parent="WIyWlLk6GJQsqaUBKTNV-1">
          <mxGeometry y="10" relative="1" as="geometry">
            <mxPoint as="offset" />
            <mxPoint x="369.58000000000004" y="200" as="sourcePoint" />
            <mxPoint x="369.58000000000004" y="259.9999999999999" as="targetPoint" />
          </mxGeometry>
        </mxCell>
        <mxCell id="jvSXbim7RQ2kWvmTT3K5-26" value="Yes" style="edgeStyle=orthogonalEdgeStyle;rounded=0;html=1;jettySize=auto;orthogonalLoop=1;fontSize=11;endArrow=block;endFill=0;endSize=8;strokeWidth=1;shadow=0;labelBackgroundColor=none;entryX=0.5;entryY=0;entryDx=0;entryDy=0;exitX=0.5;exitY=1;exitDx=0;exitDy=0;fontFamily=Helvetica;" edge="1" parent="WIyWlLk6GJQsqaUBKTNV-1">
          <mxGeometry y="10" relative="1" as="geometry">
            <mxPoint as="offset" />
            <mxPoint x="1009.76" y="200" as="sourcePoint" />
            <mxPoint x="1009.76" y="259.9999999999999" as="targetPoint" />
          </mxGeometry>
        </mxCell>
        <mxCell id="jvSXbim7RQ2kWvmTT3K5-27" value="No" style="edgeStyle=orthogonalEdgeStyle;rounded=0;html=1;jettySize=auto;orthogonalLoop=1;fontSize=11;endArrow=block;endFill=0;endSize=8;strokeWidth=1;shadow=0;labelBackgroundColor=none;entryX=0;entryY=0.5;entryDx=0;entryDy=0;exitX=1;exitY=0.5;exitDx=0;exitDy=0;fontFamily=Helvetica;" edge="1" parent="WIyWlLk6GJQsqaUBKTNV-1" source="jvSXbim7RQ2kWvmTT3K5-15" target="jvSXbim7RQ2kWvmTT3K5-16">
          <mxGeometry y="10" relative="1" as="geometry">
            <mxPoint as="offset" />
            <mxPoint x="120" y="170" as="sourcePoint" />
            <mxPoint x="170" y="170" as="targetPoint" />
          </mxGeometry>
        </mxCell>
        <mxCell id="jvSXbim7RQ2kWvmTT3K5-28" value="No" style="edgeStyle=orthogonalEdgeStyle;rounded=0;html=1;jettySize=auto;orthogonalLoop=1;fontSize=11;endArrow=block;endFill=0;endSize=8;strokeWidth=1;shadow=0;labelBackgroundColor=none;entryX=0;entryY=0.5;entryDx=0;entryDy=0;exitX=1;exitY=0.5;exitDx=0;exitDy=0;fontFamily=Helvetica;" edge="1" parent="WIyWlLk6GJQsqaUBKTNV-1">
          <mxGeometry y="10" relative="1" as="geometry">
            <mxPoint as="offset" />
            <mxPoint x="420" y="159.67" as="sourcePoint" />
            <mxPoint x="480" y="159.67" as="targetPoint" />
          </mxGeometry>
        </mxCell>
        <mxCell id="jvSXbim7RQ2kWvmTT3K5-29" value="Yes" style="edgeStyle=orthogonalEdgeStyle;rounded=0;html=1;jettySize=auto;orthogonalLoop=1;fontSize=11;endArrow=block;endFill=0;endSize=8;strokeWidth=1;shadow=0;labelBackgroundColor=none;entryX=0;entryY=0.5;entryDx=0;entryDy=0;exitX=1;exitY=0.5;exitDx=0;exitDy=0;fontFamily=Helvetica;" edge="1" parent="WIyWlLk6GJQsqaUBKTNV-1">
          <mxGeometry y="10" relative="1" as="geometry">
            <mxPoint as="offset" />
            <mxPoint x="580" y="159.66999999999996" as="sourcePoint" />
            <mxPoint x="640" y="159.66999999999996" as="targetPoint" />
          </mxGeometry>
        </mxCell>
        <mxCell id="jvSXbim7RQ2kWvmTT3K5-30" value="No" style="edgeStyle=orthogonalEdgeStyle;rounded=0;html=1;jettySize=auto;orthogonalLoop=1;fontSize=11;endArrow=block;endFill=0;endSize=8;strokeWidth=1;shadow=0;labelBackgroundColor=none;entryX=0;entryY=0.5;entryDx=0;entryDy=0;exitX=1;exitY=0.5;exitDx=0;exitDy=0;fontFamily=Helvetica;" edge="1" parent="WIyWlLk6GJQsqaUBKTNV-1">
          <mxGeometry y="10" relative="1" as="geometry">
            <mxPoint as="offset" />
            <mxPoint x="740" y="159.66999999999996" as="sourcePoint" />
            <mxPoint x="800" y="159.66999999999996" as="targetPoint" />
          </mxGeometry>
        </mxCell>
        <mxCell id="jvSXbim7RQ2kWvmTT3K5-31" value="No" style="edgeStyle=orthogonalEdgeStyle;rounded=0;html=1;jettySize=auto;orthogonalLoop=1;fontSize=11;endArrow=block;endFill=0;endSize=8;strokeWidth=1;shadow=0;labelBackgroundColor=none;entryX=0;entryY=0.5;entryDx=0;entryDy=0;exitX=1;exitY=0.5;exitDx=0;exitDy=0;fontFamily=Helvetica;" edge="1" parent="WIyWlLk6GJQsqaUBKTNV-1">
          <mxGeometry y="10" relative="1" as="geometry">
            <mxPoint as="offset" />
            <mxPoint x="900" y="159.66999999999996" as="sourcePoint" />
            <mxPoint x="960" y="159.66999999999996" as="targetPoint" />
          </mxGeometry>
        </mxCell>
        <mxCell id="jvSXbim7RQ2kWvmTT3K5-43" style="edgeStyle=none;curved=1;rounded=0;orthogonalLoop=1;jettySize=auto;html=1;exitX=0.5;exitY=1;exitDx=0;exitDy=0;entryX=0.5;entryY=0;entryDx=0;entryDy=0;fontSize=7;endArrow=block;endFill=0;startSize=6;endSize=8;sourcePerimeterSpacing=0;targetPerimeterSpacing=0;fontFamily=Helvetica;" edge="1" parent="WIyWlLk6GJQsqaUBKTNV-1" source="jvSXbim7RQ2kWvmTT3K5-32" target="jvSXbim7RQ2kWvmTT3K5-42">
          <mxGeometry relative="1" as="geometry" />
        </mxCell>
        <mxCell id="jvSXbim7RQ2kWvmTT3K5-32" value="See AISC Manual Part 3" style="rounded=0;whiteSpace=wrap;html=1;fontSize=7;glass=0;strokeWidth=1;shadow=0;fontFamily=Helvetica;" vertex="1" parent="WIyWlLk6GJQsqaUBKTNV-1">
          <mxGeometry y="260" width="120" height="40" as="geometry" />
        </mxCell>
        <mxCell id="jvSXbim7RQ2kWvmTT3K5-33" value="See AISC Manual Part 4" style="rounded=0;whiteSpace=wrap;html=1;fontSize=7;glass=0;strokeWidth=1;shadow=0;fontFamily=Helvetica;" vertex="1" parent="WIyWlLk6GJQsqaUBKTNV-1">
          <mxGeometry x="150" y="260" width="120" height="40" as="geometry" />
        </mxCell>
        <mxCell id="jvSXbim7RQ2kWvmTT3K5-34" value="See AISC Manual Part 5" style="rounded=0;whiteSpace=wrap;html=1;fontSize=7;glass=0;strokeWidth=1;shadow=0;fontFamily=Helvetica;" vertex="1" parent="WIyWlLk6GJQsqaUBKTNV-1">
          <mxGeometry x="310" y="260" width="120" height="40" as="geometry" />
        </mxCell>
        <mxCell id="jvSXbim7RQ2kWvmTT3K5-35" value="STOP" style="rounded=0;whiteSpace=wrap;html=1;fontSize=7;glass=0;strokeWidth=1;shadow=0;fontFamily=Helvetica;" vertex="1" parent="WIyWlLk6GJQsqaUBKTNV-1">
          <mxGeometry x="470" y="260" width="120" height="40" as="geometry" />
        </mxCell>
        <mxCell id="jvSXbim7RQ2kWvmTT3K5-37" value="See AISC Manual Section H1.1" style="rounded=0;whiteSpace=wrap;html=1;fontSize=7;glass=0;strokeWidth=1;shadow=0;fontFamily=Helvetica;" vertex="1" parent="WIyWlLk6GJQsqaUBKTNV-1">
          <mxGeometry x="520" y="380" width="120" height="40" as="geometry" />
        </mxCell>
        <mxCell id="jvSXbim7RQ2kWvmTT3K5-38" value="Doubly or Singly Simetric" style="rhombus;whiteSpace=wrap;html=1;shadow=0;fontFamily=Helvetica;fontSize=7;align=center;strokeWidth=1;spacing=6;spacingTop=-4;rounded=0;" vertex="1" parent="WIyWlLk6GJQsqaUBKTNV-1">
          <mxGeometry x="640" y="260" width="100" height="80" as="geometry" />
        </mxCell>
        <mxCell id="jvSXbim7RQ2kWvmTT3K5-39" value="No" style="edgeStyle=orthogonalEdgeStyle;rounded=0;html=1;jettySize=auto;orthogonalLoop=1;fontSize=11;endArrow=block;endFill=0;endSize=8;strokeWidth=1;shadow=0;labelBackgroundColor=none;entryX=0.5;entryY=0;entryDx=0;entryDy=0;exitX=1;exitY=0.5;exitDx=0;exitDy=0;fontFamily=Helvetica;" edge="1" parent="WIyWlLk6GJQsqaUBKTNV-1" target="jvSXbim7RQ2kWvmTT3K5-41">
          <mxGeometry y="10" relative="1" as="geometry">
            <mxPoint as="offset" />
            <mxPoint x="740" y="300" as="sourcePoint" />
            <mxPoint x="800" y="300" as="targetPoint" />
            <Array as="points">
              <mxPoint x="760" y="300" />
              <mxPoint x="760" y="340" />
              <mxPoint x="820" y="340" />
            </Array>
          </mxGeometry>
        </mxCell>
        <mxCell id="jvSXbim7RQ2kWvmTT3K5-40" value="Yes" style="edgeStyle=orthogonalEdgeStyle;rounded=0;html=1;jettySize=auto;orthogonalLoop=1;fontSize=11;endArrow=block;endFill=0;endSize=8;strokeWidth=1;shadow=0;labelBackgroundColor=none;entryX=0.5;entryY=0;entryDx=0;entryDy=0;exitX=0;exitY=0.5;exitDx=0;exitDy=0;fontFamily=Helvetica;" edge="1" parent="WIyWlLk6GJQsqaUBKTNV-1" source="jvSXbim7RQ2kWvmTT3K5-38" target="jvSXbim7RQ2kWvmTT3K5-37">
          <mxGeometry y="10" relative="1" as="geometry">
            <mxPoint as="offset" />
            <mxPoint x="689.8" y="340" as="sourcePoint" />
            <mxPoint x="689.8" y="399.9999999999999" as="targetPoint" />
            <Array as="points">
              <mxPoint x="620" y="300" />
              <mxPoint x="620" y="340" />
              <mxPoint x="580" y="340" />
            </Array>
          </mxGeometry>
        </mxCell>
        <mxCell id="jvSXbim7RQ2kWvmTT3K5-41" value="See AISC Manual Section H2" style="rounded=0;whiteSpace=wrap;html=1;fontSize=7;glass=0;strokeWidth=1;shadow=0;fontFamily=Helvetica;" vertex="1" parent="WIyWlLk6GJQsqaUBKTNV-1">
          <mxGeometry x="760" y="380" width="120" height="40" as="geometry" />
        </mxCell>
        <mxCell id="jvSXbim7RQ2kWvmTT3K5-45" style="edgeStyle=orthogonalEdgeStyle;rounded=0;orthogonalLoop=1;jettySize=auto;html=1;exitX=1;exitY=0.5;exitDx=0;exitDy=0;entryX=0;entryY=0.5;entryDx=0;entryDy=0;fontSize=7;endArrow=none;endFill=0;startSize=6;endSize=8;sourcePerimeterSpacing=0;targetPerimeterSpacing=0;fontFamily=Helvetica;" edge="1" parent="WIyWlLk6GJQsqaUBKTNV-1" source="jvSXbim7RQ2kWvmTT3K5-42" target="jvSXbim7RQ2kWvmTT3K5-44">
          <mxGeometry relative="1" as="geometry" />
        </mxCell>
        <mxCell id="jvSXbim7RQ2kWvmTT3K5-47" style="edgeStyle=orthogonalEdgeStyle;rounded=0;orthogonalLoop=1;jettySize=auto;html=1;exitX=1;exitY=0.5;exitDx=0;exitDy=0;entryX=0;entryY=0.5;entryDx=0;entryDy=0;fontSize=7;endArrow=none;endFill=0;startSize=6;endSize=8;sourcePerimeterSpacing=0;targetPerimeterSpacing=0;fontFamily=Helvetica;" edge="1" parent="WIyWlLk6GJQsqaUBKTNV-1" source="jvSXbim7RQ2kWvmTT3K5-42" target="jvSXbim7RQ2kWvmTT3K5-46">
          <mxGeometry relative="1" as="geometry" />
        </mxCell>
        <mxCell id="jvSXbim7RQ2kWvmTT3K5-49" style="edgeStyle=orthogonalEdgeStyle;rounded=0;orthogonalLoop=1;jettySize=auto;html=1;exitX=0.5;exitY=1;exitDx=0;exitDy=0;fontSize=7;endArrow=block;endFill=0;startSize=6;endSize=8;sourcePerimeterSpacing=0;targetPerimeterSpacing=0;fontFamily=Helvetica;" edge="1" parent="WIyWlLk6GJQsqaUBKTNV-1" source="jvSXbim7RQ2kWvmTT3K5-42" target="jvSXbim7RQ2kWvmTT3K5-48">
          <mxGeometry relative="1" as="geometry" />
        </mxCell>
        <mxCell id="jvSXbim7RQ2kWvmTT3K5-42" value="Section Properties and Areas" style="rounded=0;whiteSpace=wrap;html=1;fontSize=7;glass=0;strokeWidth=1;shadow=0;fontFamily=Helvetica;" vertex="1" parent="WIyWlLk6GJQsqaUBKTNV-1">
          <mxGeometry y="340" width="120" height="40" as="geometry" />
        </mxCell>
        <mxCell id="jvSXbim7RQ2kWvmTT3K5-44" value="For Flexure&lt;br&gt;See AISC Specification Section F13.1" style="rounded=0;whiteSpace=wrap;html=1;fontSize=7;glass=0;strokeWidth=1;shadow=0;fontFamily=Helvetica;" vertex="1" parent="WIyWlLk6GJQsqaUBKTNV-1">
          <mxGeometry x="160" y="380" width="120" height="40" as="geometry" />
        </mxCell>
        <mxCell id="jvSXbim7RQ2kWvmTT3K5-46" value="For Shear&lt;br&gt;See AISC Specification Chapter G" style="rounded=0;whiteSpace=wrap;html=1;fontSize=7;glass=0;strokeWidth=1;shadow=0;fontFamily=Helvetica;" vertex="1" parent="WIyWlLk6GJQsqaUBKTNV-1">
          <mxGeometry x="160" y="440" width="120" height="40" as="geometry" />
        </mxCell>
        <mxCell id="jvSXbim7RQ2kWvmTT3K5-56" style="edgeStyle=orthogonalEdgeStyle;rounded=0;orthogonalLoop=1;jettySize=auto;html=1;exitX=0.5;exitY=1;exitDx=0;exitDy=0;entryX=0.5;entryY=0;entryDx=0;entryDy=0;fontSize=7;endArrow=block;endFill=0;startSize=6;endSize=8;sourcePerimeterSpacing=0;targetPerimeterSpacing=0;fontFamily=Helvetica;" edge="1" parent="WIyWlLk6GJQsqaUBKTNV-1" source="jvSXbim7RQ2kWvmTT3K5-48" target="jvSXbim7RQ2kWvmTT3K5-50">
          <mxGeometry relative="1" as="geometry" />
        </mxCell>
        <mxCell id="jvSXbim7RQ2kWvmTT3K5-48" value="Section Properties and Areas" style="rounded=0;whiteSpace=wrap;html=1;fontSize=7;glass=0;strokeWidth=1;shadow=0;fontFamily=Helvetica;" vertex="1" parent="WIyWlLk6GJQsqaUBKTNV-1">
          <mxGeometry y="480" width="120" height="40" as="geometry" />
        </mxCell>
        <mxCell id="jvSXbim7RQ2kWvmTT3K5-50" value="Flexural Strength" style="rounded=0;whiteSpace=wrap;html=1;fontSize=7;glass=0;strokeWidth=1;shadow=0;fontFamily=Helvetica;" vertex="1" parent="WIyWlLk6GJQsqaUBKTNV-1">
          <mxGeometry y="770" width="120" height="40" as="geometry" />
        </mxCell>
        <mxCell id="jvSXbim7RQ2kWvmTT3K5-70" value="Yes" style="edgeStyle=orthogonalEdgeStyle;rounded=0;sketch=0;orthogonalLoop=1;jettySize=auto;html=1;exitX=0;exitY=0.5;exitDx=0;exitDy=0;entryX=0.5;entryY=0;entryDx=0;entryDy=0;endArrow=block;endFill=0;startSize=6;endSize=8;sourcePerimeterSpacing=0;targetPerimeterSpacing=0;labelBackgroundColor=none;fontFamily=Helvetica;" edge="1" parent="WIyWlLk6GJQsqaUBKTNV-1" source="jvSXbim7RQ2kWvmTT3K5-57" target="jvSXbim7RQ2kWvmTT3K5-65">
          <mxGeometry x="0.2" y="-10" relative="1" as="geometry">
            <mxPoint as="offset" />
          </mxGeometry>
        </mxCell>
        <mxCell id="jvSXbim7RQ2kWvmTT3K5-71" value="No" style="edgeStyle=orthogonalEdgeStyle;rounded=0;sketch=0;orthogonalLoop=1;jettySize=auto;html=1;entryX=0.5;entryY=0;entryDx=0;entryDy=0;endArrow=block;endFill=0;startSize=6;endSize=8;sourcePerimeterSpacing=0;targetPerimeterSpacing=0;labelBackgroundColor=none;fontFamily=Helvetica;" edge="1" parent="WIyWlLk6GJQsqaUBKTNV-1" source="jvSXbim7RQ2kWvmTT3K5-57" target="jvSXbim7RQ2kWvmTT3K5-114">
          <mxGeometry y="10" relative="1" as="geometry">
            <mxPoint x="860" y="770" as="targetPoint" />
            <mxPoint as="offset" />
          </mxGeometry>
        </mxCell>
        <mxCell id="jvSXbim7RQ2kWvmTT3K5-57" value="Check Member:&lt;br&gt;L&lt;sub&gt;b&lt;/sub&gt;&amp;lt;=L&lt;span style=&quot;font-size: 5.83333px;&quot;&gt;p&lt;/span&gt;" style="rhombus;whiteSpace=wrap;html=1;shadow=0;fontFamily=Helvetica;fontSize=7;align=center;strokeWidth=1;spacing=6;spacingTop=-4;rounded=0;" vertex="1" parent="WIyWlLk6GJQsqaUBKTNV-1">
          <mxGeometry x="670" y="690" width="100" height="80" as="geometry" />
        </mxCell>
        <mxCell id="jvSXbim7RQ2kWvmTT3K5-69" style="edgeStyle=none;curved=0;rounded=0;sketch=0;orthogonalLoop=1;jettySize=auto;html=1;exitX=0.5;exitY=1;exitDx=0;exitDy=0;endArrow=block;startSize=6;endSize=8;sourcePerimeterSpacing=0;targetPerimeterSpacing=0;endFill=0;fontFamily=Helvetica;" edge="1" parent="WIyWlLk6GJQsqaUBKTNV-1" source="jvSXbim7RQ2kWvmTT3K5-58">
          <mxGeometry relative="1" as="geometry">
            <mxPoint x="720" y="690" as="targetPoint" />
          </mxGeometry>
        </mxCell>
        <mxCell id="jvSXbim7RQ2kWvmTT3K5-58" value="Member type:&amp;nbsp;" style="rounded=0;whiteSpace=wrap;html=1;fontSize=7;glass=0;strokeWidth=1;shadow=0;fontFamily=Helvetica;" vertex="1" parent="WIyWlLk6GJQsqaUBKTNV-1">
          <mxGeometry x="660" y="610" width="120" height="40" as="geometry" />
        </mxCell>
        <mxCell id="jvSXbim7RQ2kWvmTT3K5-81" style="edgeStyle=orthogonalEdgeStyle;sketch=0;orthogonalLoop=1;jettySize=auto;html=1;exitX=0.5;exitY=1;exitDx=0;exitDy=0;labelBackgroundColor=none;fontFamily=Helvetica;endArrow=block;endFill=0;startSize=6;endSize=8;sourcePerimeterSpacing=0;targetPerimeterSpacing=0;" edge="1" parent="WIyWlLk6GJQsqaUBKTNV-1" source="jvSXbim7RQ2kWvmTT3K5-65" target="jvSXbim7RQ2kWvmTT3K5-80">
          <mxGeometry relative="1" as="geometry">
            <Array as="points">
              <mxPoint x="580" y="920" />
              <mxPoint x="720" y="920" />
            </Array>
          </mxGeometry>
        </mxCell>
        <mxCell id="jvSXbim7RQ2kWvmTT3K5-65" value="Braced." style="rounded=0;whiteSpace=wrap;html=1;fontSize=7;glass=0;strokeWidth=1;shadow=0;fontFamily=Helvetica;" vertex="1" parent="WIyWlLk6GJQsqaUBKTNV-1">
          <mxGeometry x="520" y="770" width="120" height="40" as="geometry" />
        </mxCell>
        <mxCell id="jvSXbim7RQ2kWvmTT3K5-82" style="edgeStyle=orthogonalEdgeStyle;sketch=0;orthogonalLoop=1;jettySize=auto;html=1;exitX=0.5;exitY=1;exitDx=0;exitDy=0;entryX=0.5;entryY=0;entryDx=0;entryDy=0;labelBackgroundColor=none;fontFamily=Helvetica;endArrow=block;endFill=0;startSize=6;endSize=8;sourcePerimeterSpacing=0;targetPerimeterSpacing=0;" edge="1" parent="WIyWlLk6GJQsqaUBKTNV-1" source="jvSXbim7RQ2kWvmTT3K5-115" target="jvSXbim7RQ2kWvmTT3K5-80">
          <mxGeometry relative="1" as="geometry">
            <mxPoint x="860" y="810" as="sourcePoint" />
          </mxGeometry>
        </mxCell>
        <mxCell id="jvSXbim7RQ2kWvmTT3K5-111" style="edgeStyle=orthogonalEdgeStyle;rounded=1;sketch=0;orthogonalLoop=1;jettySize=auto;html=1;entryX=1;entryY=0.5;entryDx=0;entryDy=0;fontFamily=Helvetica;fontSize=7;endArrow=none;endFill=0;startSize=6;endSize=8;sourcePerimeterSpacing=0;targetPerimeterSpacing=0;exitX=0.5;exitY=1;exitDx=0;exitDy=0;" edge="1" parent="WIyWlLk6GJQsqaUBKTNV-1" source="jvSXbim7RQ2kWvmTT3K5-80" target="jvSXbim7RQ2kWvmTT3K5-108">
          <mxGeometry relative="1" as="geometry">
            <mxPoint x="830" y="1080" as="sourcePoint" />
          </mxGeometry>
        </mxCell>
        <mxCell id="jvSXbim7RQ2kWvmTT3K5-112" style="edgeStyle=orthogonalEdgeStyle;rounded=1;sketch=0;orthogonalLoop=1;jettySize=auto;html=1;exitX=0.5;exitY=1;exitDx=0;exitDy=0;entryX=0;entryY=0.5;entryDx=0;entryDy=0;fontFamily=Helvetica;fontSize=7;endArrow=none;endFill=0;startSize=6;endSize=8;sourcePerimeterSpacing=0;targetPerimeterSpacing=0;" edge="1" parent="WIyWlLk6GJQsqaUBKTNV-1" source="jvSXbim7RQ2kWvmTT3K5-80" target="jvSXbim7RQ2kWvmTT3K5-109">
          <mxGeometry relative="1" as="geometry" />
        </mxCell>
        <mxCell id="jvSXbim7RQ2kWvmTT3K5-113" style="edgeStyle=orthogonalEdgeStyle;rounded=1;sketch=0;orthogonalLoop=1;jettySize=auto;html=1;exitX=0.5;exitY=1;exitDx=0;exitDy=0;entryX=0;entryY=0.5;entryDx=0;entryDy=0;fontFamily=Helvetica;fontSize=7;endArrow=none;endFill=0;startSize=6;endSize=8;sourcePerimeterSpacing=0;targetPerimeterSpacing=0;" edge="1" parent="WIyWlLk6GJQsqaUBKTNV-1" source="jvSXbim7RQ2kWvmTT3K5-80" target="jvSXbim7RQ2kWvmTT3K5-110">
          <mxGeometry relative="1" as="geometry" />
        </mxCell>
        <mxCell id="jvSXbim7RQ2kWvmTT3K5-80" value="Check Cross Section:&lt;br&gt;Lambda&amp;lt;=Lambda_p" style="rhombus;whiteSpace=wrap;html=1;shadow=0;fontFamily=Helvetica;fontSize=7;align=center;strokeWidth=1;spacing=6;spacingTop=-4;rounded=0;" vertex="1" parent="WIyWlLk6GJQsqaUBKTNV-1">
          <mxGeometry x="670" y="1030" width="100" height="80" as="geometry" />
        </mxCell>
        <mxCell id="jvSXbim7RQ2kWvmTT3K5-108" value="Compact" style="rounded=0;whiteSpace=wrap;html=1;fontSize=7;glass=0;strokeWidth=1;shadow=0;fontFamily=Helvetica;" vertex="1" parent="WIyWlLk6GJQsqaUBKTNV-1">
          <mxGeometry x="520" y="1120" width="120" height="40" as="geometry" />
        </mxCell>
        <mxCell id="jvSXbim7RQ2kWvmTT3K5-109" value="Non-compact" style="rounded=0;whiteSpace=wrap;html=1;fontSize=7;glass=0;strokeWidth=1;shadow=0;fontFamily=Helvetica;" vertex="1" parent="WIyWlLk6GJQsqaUBKTNV-1">
          <mxGeometry x="800" y="1160" width="120" height="40" as="geometry" />
        </mxCell>
        <mxCell id="jvSXbim7RQ2kWvmTT3K5-110" value="Slender" style="rounded=0;whiteSpace=wrap;html=1;fontSize=7;glass=0;strokeWidth=1;shadow=0;fontFamily=Helvetica;" vertex="1" parent="WIyWlLk6GJQsqaUBKTNV-1">
          <mxGeometry x="800" y="1220" width="120" height="40" as="geometry" />
        </mxCell>
        <mxCell id="jvSXbim7RQ2kWvmTT3K5-116" value="" style="group" vertex="1" connectable="0" parent="WIyWlLk6GJQsqaUBKTNV-1">
          <mxGeometry x="800" y="770" width="260" height="200" as="geometry" />
        </mxCell>
        <mxCell id="jvSXbim7RQ2kWvmTT3K5-115" value="" style="rounded=0;whiteSpace=wrap;html=1;sketch=0;hachureGap=4;fontFamily=Helvetica;fontSize=7;strokeColor=default;dashed=1;" vertex="1" parent="jvSXbim7RQ2kWvmTT3K5-116">
          <mxGeometry width="260" height="200" as="geometry" />
        </mxCell>
        <mxCell id="jvSXbim7RQ2kWvmTT3K5-100" value="Moda Kegagalan:" style="text;strokeColor=#2D7600;fillColor=#60a917;html=1;align=center;verticalAlign=middle;whiteSpace=wrap;rounded=0;sketch=0;hachureGap=4;fontFamily=Helvetica;fontSize=7;fontColor=#ffffff;" vertex="1" parent="jvSXbim7RQ2kWvmTT3K5-116">
          <mxGeometry x="130" y="20" width="100" height="30" as="geometry" />
        </mxCell>
        <mxCell id="jvSXbim7RQ2kWvmTT3K5-101" value="Inelastic lateral-torsional buckling" style="text;strokeColor=default;fillColor=none;html=1;align=center;verticalAlign=middle;whiteSpace=wrap;rounded=0;sketch=0;hachureGap=4;fontFamily=Helvetica;fontSize=7;" vertex="1" parent="jvSXbim7RQ2kWvmTT3K5-116">
          <mxGeometry x="130" y="60" width="100" height="30" as="geometry" />
        </mxCell>
        <mxCell id="jvSXbim7RQ2kWvmTT3K5-105" value="Lateral-torsional buckling" style="text;strokeColor=default;fillColor=none;html=1;align=center;verticalAlign=middle;whiteSpace=wrap;rounded=0;sketch=0;hachureGap=4;fontFamily=Helvetica;fontSize=7;" vertex="1" parent="jvSXbim7RQ2kWvmTT3K5-116">
          <mxGeometry x="130" y="150" width="100" height="30" as="geometry" />
        </mxCell>
        <mxCell id="jvSXbim7RQ2kWvmTT3K5-114" value="Unbraced" style="rounded=0;whiteSpace=wrap;html=1;fontSize=7;glass=0;strokeWidth=1;shadow=0;fontFamily=Helvetica;" vertex="1" parent="jvSXbim7RQ2kWvmTT3K5-116">
          <mxGeometry width="120" height="40" as="geometry" />
        </mxCell>
        <mxCell id="jvSXbim7RQ2kWvmTT3K5-103" style="edgeStyle=orthogonalEdgeStyle;rounded=1;sketch=0;orthogonalLoop=1;jettySize=auto;html=1;exitX=0.5;exitY=1;exitDx=0;exitDy=0;entryX=0;entryY=0.5;entryDx=0;entryDy=0;fontFamily=Helvetica;fontSize=7;endArrow=block;endFill=0;startSize=6;endSize=8;sourcePerimeterSpacing=0;targetPerimeterSpacing=0;" edge="1" parent="jvSXbim7RQ2kWvmTT3K5-116" source="jvSXbim7RQ2kWvmTT3K5-114" target="jvSXbim7RQ2kWvmTT3K5-101">
          <mxGeometry relative="1" as="geometry">
            <mxPoint x="50" y="120" as="sourcePoint" />
          </mxGeometry>
        </mxCell>
        <mxCell id="jvSXbim7RQ2kWvmTT3K5-104" value="if Lp&amp;lt;Lb&amp;lt;Lr" style="edgeLabel;html=1;align=center;verticalAlign=middle;resizable=0;points=[];fontSize=7;fontFamily=Helvetica;" vertex="1" connectable="0" parent="jvSXbim7RQ2kWvmTT3K5-103">
          <mxGeometry x="0.2996" y="-3" relative="1" as="geometry">
            <mxPoint as="offset" />
          </mxGeometry>
        </mxCell>
        <mxCell id="jvSXbim7RQ2kWvmTT3K5-106" style="edgeStyle=orthogonalEdgeStyle;rounded=1;sketch=0;orthogonalLoop=1;jettySize=auto;html=1;exitX=0.5;exitY=1;exitDx=0;exitDy=0;fontFamily=Helvetica;fontSize=7;endArrow=block;endFill=0;startSize=6;endSize=8;sourcePerimeterSpacing=0;targetPerimeterSpacing=0;entryX=0;entryY=0.5;entryDx=0;entryDy=0;" edge="1" parent="jvSXbim7RQ2kWvmTT3K5-116" source="jvSXbim7RQ2kWvmTT3K5-114" target="jvSXbim7RQ2kWvmTT3K5-105">
          <mxGeometry relative="1" as="geometry">
            <mxPoint x="50" y="120" as="sourcePoint" />
          </mxGeometry>
        </mxCell>
        <mxCell id="jvSXbim7RQ2kWvmTT3K5-107" value="If Lb&amp;gt;Lr" style="edgeLabel;html=1;align=center;verticalAlign=middle;resizable=0;points=[];fontSize=7;fontFamily=Helvetica;" vertex="1" connectable="0" parent="jvSXbim7RQ2kWvmTT3K5-106">
          <mxGeometry x="0.1049" relative="1" as="geometry">
            <mxPoint as="offset" />
          </mxGeometry>
        </mxCell>
      </root>
    </mxGraphModel>
  </diagram>
</mxfile>
